<svg width="136" height="24" viewBox="0 0 136 24" xmlns="http://www.w3.org/2000/svg">
<path d="M12 0L15.174 7.63131L23.4127 8.2918L17.1357 13.6687L19.0534 21.7082L12 17.4L4.94658 21.7082L6.8643 13.6687L0.587322 8.2918L8.82596 7.63131L12 0Z" fill="#AE990B"/>
<path d="M40 0L43.174 7.63131L51.4127 8.2918L45.1357 13.6687L47.0534 21.7082L40 17.4L32.9466 21.7082L34.8643 13.6687L28.5873 8.2918L36.826 7.63131L40 0Z" fill="#AE990B"/>
<path d="M68 0L71.174 7.63131L79.4127 8.2918L73.1357 13.6687L75.0534 21.7082L68 17.4L60.9466 21.7082L62.8643 13.6687L56.5873 8.2918L64.826 7.63131L68 0Z" fill="#AE990B"/>
<path d="M96 0L99.174 7.63131L107.413 8.2918L101.136 13.6687L103.053 21.7082L96 17.4L88.9466 21.7082L90.8643 13.6687L84.5873 8.2918L92.826 7.63131L96 0Z" fill="#AE990B"/>
<path d="M124 0L127.174 7.63131L135.413 8.2918L129.136 13.6687L131.053 21.7082L124 17.4L116.947 21.7082L118.864 13.6687L112.587 8.2918L120.826 7.63131L124 0Z" fill="#AE990B"/>
</svg>
